<svg width="32" height="32" viewBox="0 0 32 32" fill="none" xmlns="http://www.w3.org/2000/svg">
<path d="M28.76 11.35C28.6661 11.2402 28.5496 11.1521 28.4184 11.0917C28.2872 11.0313 28.1444 11 28 11H22V7C22 6.20435 21.6839 5.44129 21.1213 4.87868C20.5587 4.31607 19.7957 4 19 4H13C12.2044 4 11.4413 4.31607 10.8787 4.87868C10.3161 5.44129 10 6.20435 10 7V11H4C3.85505 10.9984 3.71147 11.0283 3.57922 11.0876C3.44696 11.147 3.32919 11.2344 3.23407 11.3438C3.13895 11.4531 3.06875 11.5819 3.02833 11.7211C2.98791 11.8603 2.97825 12.0067 3 12.15L4.88 24.3C4.95232 24.7769 5.19457 25.2116 5.5621 25.524C5.92962 25.8364 6.39767 26.0055 6.88 26H25.14C25.6223 26.0055 26.0904 25.8364 26.4579 25.524C26.8254 25.2116 27.0677 24.7769 27.14 24.3L29 12.15C29.02 12.0072 29.0089 11.8618 28.9675 11.7237C28.9261 11.5857 28.8553 11.4582 28.76 11.35ZM12 7C12 6.73478 12.1054 6.48043 12.2929 6.29289C12.4804 6.10536 12.7348 6 13 6H19C19.2652 6 19.5196 6.10536 19.7071 6.29289C19.8946 6.48043 20 6.73478 20 7V11H12V7ZM25.14 24H6.86L5.17 13H26.83L25.14 24Z" fill="#4B5298"/>
<path d="M4.80533 12.9759C5.03238 13.4828 5.49825 14.1488 5.49825 14.7397C5.49825 15.014 5.58316 15.2273 5.65573 15.4886C5.71019 15.6846 5.78358 15.901 5.81321 16.101C5.86195 16.43 5.80953 16.8157 5.9077 17.1299C5.96861 17.3248 5.94858 17.5343 6.00219 17.7353C6.08566 18.0483 6.25655 18.3661 6.31366 18.6802C6.40282 19.1706 6.50613 19.66 6.50613 20.164C6.50613 21.0541 6.59368 21.8435 6.7931 22.7187C6.89537 23.1676 6.60764 23.8106 7.23405 23.8106C8.67375 23.8106 10.1313 23.7358 11.5806 23.7476C12.7315 23.757 13.8883 23.8812 15.0382 23.9331C15.7715 23.9662 16.4974 24.1256 17.2289 24.1256C18.0816 24.1256 18.9344 24.1256 19.7871 24.1256C20.387 24.1256 20.999 24.0626 21.6069 24.0626C21.9907 24.0626 22.3745 24.0626 22.7583 24.0626C23.1394 24.0626 23.5017 23.9366 23.8816 23.9366C24.1705 23.9366 24.4463 23.8736 24.725 23.8736C25.1696 23.8736 25.0793 23.8654 25.243 23.4817C25.3526 23.2247 25.4592 22.9907 25.467 22.7047C25.4966 21.6061 26.0312 20.5871 26.3349 19.5411C26.5517 18.7942 26.7512 18.0436 26.8878 17.2629C26.9607 16.8461 27.0577 16.3329 27.1993 15.9365C27.3015 15.6503 27.3567 15.2622 27.3567 14.9601C27.3567 14.6613 27.4827 14.376 27.4827 14.0747C27.4827 13.8834 27.5254 13.3661 27.2937 13.3048C26.9929 13.2252 26.6654 13.3118 26.3559 13.2278C25.9526 13.1185 25.5187 13.0466 25.138 12.8709C24.8596 12.7424 24.6045 12.5118 24.3121 12.4194C24.1655 12.3731 23.9667 12.4069 23.8151 12.3949C23.226 12.3483 22.6286 12.2829 22.0373 12.2829C21.6308 12.2829 21.2097 12.252 20.8055 12.2969C20.5468 12.3257 20.2947 12.4089 20.0356 12.4089C19.4879 12.4089 18.8146 12.436 18.2788 12.5699C17.6788 12.7199 17.0483 12.6609 16.431 12.6609C15.2053 12.6609 13.973 12.7239 12.7424 12.7239C10.1807 12.7239 7.61901 12.7239 5.0573 12.7239" stroke="#4B5298" stroke-linecap="round" stroke-linejoin="round"/>
<path d="M9.8125 14.3125C10.2882 14.3203 10.764 14.3233 11.2396 14.3368C11.471 14.3434 11.423 14.3477 11.25 14.3646C10.5436 14.4334 9.83668 14.4849 9.12847 14.5312C8.86001 14.5488 8.6066 14.5649 8.34028 14.5903C8.15723 14.6077 8.06881 14.623 8.29167 14.625C9.10691 14.6322 9.92259 14.625 10.7378 14.625C12.2396 14.625 13.7413 14.625 15.2431 14.625C15.8247 14.625 16.4063 14.625 16.9878 14.625C17.1759 14.625 17.7379 14.5957 17.5521 14.625C15.1088 15.0108 12.6406 15.222 10.1944 15.5903C10.1349 15.5992 9.62349 15.6439 10.0035 15.6701C11.5189 15.7748 13.0431 15.7827 14.5608 15.8351C17.0369 15.9205 19.5164 15.9974 21.9896 16.1493C22.0077 16.1504 22.6339 16.1924 22.7465 16.2118C23.0274 16.2602 22.1817 16.2912 21.8976 16.3125C20.0322 16.4525 18.1692 16.6107 16.3073 16.7917C15.4738 16.8727 14.6405 16.9547 13.8073 17.0382C13.2405 17.095 12.538 17.0974 11.9757 17.2604C11.9264 17.2747 12.0669 17.3148 12.1181 17.3194C12.7947 17.3806 13.4875 17.3673 14.1649 17.3715C16.4663 17.3858 18.7703 17.3536 21.066 17.5486C21.5716 17.5916 22.3807 17.6854 22.9167 17.7674C23.0482 17.7875 23.4236 17.8173 23.3021 17.8715C23.0689 17.9756 22.7988 17.9603 22.5451 17.9896C21.572 18.1018 20.5952 18.15 19.6181 18.2101C17.274 18.3542 14.9364 18.5777 12.5903 18.691C11.9798 18.7205 10.1499 18.7792 10.7604 18.809C11.2743 18.8341 11.7878 18.8218 12.3021 18.8559C14.1254 18.9768 15.9519 19.1654 17.7639 19.3993C18.255 19.4627 18.8932 19.5545 19.3958 19.6528C19.5572 19.6843 20.0105 19.7841 19.8542 19.8351C19.7098 19.8821 19.1051 19.9791 19.0747 19.9844C18.1969 20.136 17.3184 20.2769 16.434 20.3854C15.2263 20.5337 14.0121 20.6259 12.8056 20.7847C12.6426 20.8062 12.4567 20.7775 12.3194 20.8681C12.3008 20.8804 12.3599 20.8885 12.3819 20.8924C12.5433 20.9208 13.0448 20.9549 13.1146 20.9601C14.8273 21.0875 16.5434 21.1674 18.2604 21.2049C18.9364 21.2196 18.8018 21.212 19.3542 21.2188C19.4457 21.2199 19.724 21.2175 19.3715 21.2569C18.2655 21.3806 17.1425 21.3861 16.0313 21.3993C14.6217 21.4161 13.2117 21.4062 11.8021 21.4062C11.5775 21.4062 11.353 21.4044 11.1285 21.4062C11.077 21.4067 11.0254 21.4067 10.974 21.4097C10.946 21.4114 10.8218 21.414 10.9392 21.4462C11.15 21.5039 11.4996 21.5362 11.6719 21.5538C12.8717 21.6762 14.0767 21.7449 15.2778 21.8542C16.614 21.9758 17.9497 22.1173 19.2743 22.3333C19.3358 22.3434 19.3971 22.3546 19.4583 22.3663C19.4816 22.3708 19.5292 22.3583 19.5278 22.3819C19.5264 22.4061 19.4806 22.3927 19.4566 22.3958C19.2311 22.4254 19.0003 22.4395 18.7743 22.4514C15.8456 22.6051 12.9091 22.4944 9.97917 22.5799C9.76234 22.5862 9.11339 22.6093 9.32986 22.6233C9.94337 22.6628 10.5738 22.6257 11.1875 22.625C12.8548 22.6232 14.522 22.5972 16.1892 22.5972C16.6762 22.5972 16.8918 22.5998 17.3507 22.6094C17.382 22.61 17.857 22.58 17.941 22.6319C17.989 22.6617 17.8332 22.6667 17.7778 22.6771C17.5839 22.7135 17.1412 22.7823 16.9861 22.8021C15.4015 23.0044 13.808 23.0103 12.2135 23.033C11.8294 23.0385 10.6783 23.0938 11.0625 23.0938C11.7244 23.0938 12.3892 23.0188 13.0486 22.9722C13.6967 22.9265 14.3418 22.9062 14.9913 22.9062C15.1618 22.9062 15.4356 22.9055 15.6128 22.908C15.7448 22.9098 16.1195 22.8756 16.0069 22.9444C15.8861 23.0184 15.7303 23.0066 15.5903 23.0278C14.9974 23.1173 14.4008 23.1844 13.8038 23.2396C13.4767 23.2698 12.4997 23.36 12.8194 23.2847C13.3017 23.1712 13.7967 23.1175 14.2882 23.0625C15.3063 22.9485 16.327 22.8563 17.349 22.7847C18.5344 22.7017 19.7432 22.5233 20.934 22.5955C21.2604 22.6153 20.2832 22.6606 19.9583 22.6979C18.9038 22.8192 17.8495 22.9122 16.7917 22.9965C16.5139 23.0187 16.2592 23.0428 15.9826 23.0729C15.8436 23.0881 15.4337 23.0952 15.5677 23.1354C15.6338 23.1553 15.7056 23.1277 15.7743 23.1215C16.0865 23.0934 16.3988 23.0725 16.7118 23.0556C17.4872 23.0136 19.8127 22.8979 19.0399 22.974C18.0341 23.0729 17.0297 23.2505 16.0208 23.309C15.0301 23.3665 17.9983 23.1317 18.9896 23.0868C20.0726 23.0377 21.1406 22.9375 22.2188 22.8438" stroke="#4B5298" stroke-linecap="round" stroke-linejoin="round"/>
<path d="M20.5312 23.25C21.2741 23.1227 22.024 23.0201 22.7708 22.9201C23.166 22.8672 23.5622 22.8212 23.9583 22.776C24.0685 22.7635 23.7408 22.8193 23.6319 22.8403C22.5095 23.0561 21.3875 23.2422 20.25 23.3611C19.8556 23.4023 19.4601 23.4388 19.0642 23.4635C18.8033 23.4798 19.1788 23.3305 19.2274 23.3003C20.517 22.4996 21.9903 22.0596 23.4306 21.6111C23.9867 21.4379 24.5855 21.3106 25.1319 21.1042C25.481 20.9723 24.406 20.9191 24.0347 20.8819C21.8425 20.6625 19.6405 20.4843 17.441 20.3576C17.2726 20.3479 17.1041 20.3408 16.9358 20.3316C16.8287 20.3257 16.7213 20.3229 16.6146 20.3125C16.5838 20.3095 16.5284 20.3223 16.5243 20.2917C16.5204 20.2623 16.5786 20.2664 16.6076 20.2604C16.7162 20.238 16.8261 20.2226 16.9358 20.2066C17.4384 20.1331 17.965 20.0725 18.4653 20.0122C20.0263 19.824 24.7034 19.2232 23.1372 19.3611C21.8373 19.4756 20.5544 19.6788 19.2483 19.7431C18.5163 19.7791 16.3219 19.8702 17.0503 19.7899C18.4546 19.6352 19.8571 19.4649 21.2604 19.3021C21.6045 19.2622 21.9498 19.2108 22.2951 19.1806C22.5049 19.1622 22.2633 19.2608 22.2118 19.2882C21.0278 19.9179 19.8312 20.5219 18.6302 21.1181C18.5335 21.1661 18.2628 21.2538 18.3611 21.2986C18.4719 21.3492 18.7863 21.2831 18.8767 21.2743C20.6077 21.1059 22.3291 20.9609 24.0694 20.9201C24.4129 20.9121 24.9486 20.839 25.3056 20.9149C25.4853 20.9532 24.9523 21.0198 24.7708 21.0486C23.8156 21.2001 22.8769 21.3692 21.934 21.5868C21.6562 21.6509 21.3776 21.7134 21.1024 21.7882C21.0542 21.8013 20.9134 21.8518 20.9583 21.8299C21.6331 21.5003 22.2196 20.9396 22.7917 20.4688C23.3793 19.9851 23.9401 19.4126 24.5799 18.9948C24.7005 18.916 24.6014 19.0597 24.5799 19.0972C24.3459 19.5037 24.1297 19.92 23.8958 20.3264C23.6209 20.8042 23.2036 21.2544 23.0035 21.7708C22.8331 22.2104 23.5747 21.0122 23.7743 20.5851C23.9478 20.2137 24.0809 19.8281 24.2326 19.4479C24.3177 19.2346 24.4041 18.9566 24.5469 18.7691C24.6246 18.6671 24.6199 19.0177 24.625 19.1458C24.6476 19.7153 24.6495 20.2905 24.5868 20.8576C24.5642 21.0618 24.521 21.2578 24.4809 21.4583C24.4643 21.5413 24.5657 21.3112 24.5972 21.2326C24.7432 20.8691 24.8499 20.4945 24.9219 20.1094C25.0036 19.6719 24.9769 19.2158 25.066 18.783C25.1687 18.2838 25.1078 19.8109 25.0087 20.3108C24.9433 20.6406 24.8534 20.9643 24.7639 21.2882C24.7292 21.4139 24.6344 21.6218 24.6562 21.7604C24.6683 21.837 24.7702 21.6522 24.809 21.5851C24.9628 21.3191 25.0586 21.0346 25.1285 20.7361C25.2154 20.3644 25.2615 19.9846 25.349 19.6128C25.4025 19.3852 25.4454 19.2341 25.526 19.0208C25.5496 18.9585 25.5608 18.8874 25.6042 18.8368C25.6346 18.8013 25.5831 18.9281 25.5677 18.9722C25.0849 20.3609 23.442 24.4536 24.0295 23.1059C24.2299 22.6462 24.2663 22.1556 24.3542 21.6684C24.3571 21.6524 24.3532 21.6283 24.3681 21.6215C24.4029 21.6057 24.3746 21.6978 24.375 21.7361C24.3761 21.852 24.3792 21.9694 24.3715 22.0851C24.3463 22.4628 23.9176 22.6905 23.6146 22.8299C23.4875 22.8883 23.3426 22.9244 23.2205 22.9931C23.1105 23.0549 23.471 23.0306 23.5972 23.0313C23.9797 23.0331 24.3623 23.0313 24.7448 23.0313C24.9033 23.0313 24.8315 23.0307 24.7326 23.033C24.5546 23.037 24.4607 23.0393 24.276 23.0503C23.7014 23.0848 23.1319 23.1467 22.5556 23.1545C22.5147 23.1551 22.1667 23.1962 22.1181 23.1146C22.0534 23.0061 22.3767 22.8136 22.4167 22.7882C22.9007 22.48 23.4265 22.263 23.9792 22.1146C24.0155 22.1048 24.0522 22.0963 24.0885 22.0868C24.1469 22.0715 24.1295 22.0728 24.0764 22.092C23.8841 22.1616 23.6979 22.2466 23.5069 22.3194C22.9832 22.5193 22.4076 22.6143 21.8958 22.8368C21.4075 23.0491 22.8651 22.3948 23.3385 22.151C23.5396 22.0475 23.7395 21.9427 23.9444 21.8472C23.9595 21.8402 23.9822 21.8412 23.9896 21.8264C24.0241 21.7574 23.8404 21.8658 23.7674 21.8906C22.5291 22.3116 21.3315 22.7169 20.0243 22.8681C19.9665 22.8747 19.9086 22.8795 19.8507 22.8854C19.7592 22.8947 19.7673 22.8976 19.8472 22.8767C20.1572 22.7957 20.462 22.6973 20.7674 22.6007C21.6525 22.3208 22.5349 22.0296 23.4271 21.7726C23.6126 21.7191 23.6973 21.8055 23.8281 21.9514C23.9455 22.0822 24.0206 22.2273 24.0937 22.3854C24.1196 22.4413 24.1656 22.6097 24.2396 22.6372C24.4917 22.7305 24.8582 21.9741 24.9184 21.8247C24.9341 21.7858 25.1512 21.0374 25.1111 21.3958C25.0918 21.5683 24.9845 21.8527 25.0312 22.0243C25.0486 22.0881 25.124 21.9266 25.151 21.8663C25.392 21.3279 25.4254 20.6918 25.4566 20.1128C25.52 18.9366 25.4364 17.7536 25.5538 16.5799C25.5681 16.4374 25.5004 16.8612 25.4653 17C25.3853 17.3164 25.3051 17.6437 25.1944 17.9514C25.1068 18.1953 25.2326 17.4282 25.3194 17.184C25.4446 16.832 25.6037 16.4933 25.7361 16.1441C27.2576 12.1328 24.731 18.769 25.9115 15.6424C25.9146 15.634 25.9731 15.4222 25.9896 15.5747C26.0607 16.2326 25.8464 16.8991 25.6198 17.5035C25.5298 17.7434 25.5543 17.7638 25.6944 17.5451C25.9788 17.1015 26.1623 16.603 26.3333 16.1076C26.3661 16.0126 26.9617 14.2777 26.9618 14.2778C26.9735 14.2841 26.9643 14.3044 26.9635 14.3177C26.9572 14.4278 26.9337 14.4984 26.8976 14.6163C26.629 15.494 26.2939 16.352 26.0069 17.224C25.7719 17.9381 25.4908 18.6463 25.276 19.3663C25.2627 19.411 25.2307 19.4986 25.3125 19.4444C25.5349 19.2972 25.6635 19.0738 25.7604 18.8299C26.1056 17.9613 26.2263 17.0429 26.2361 16.1146C26.2392 15.8166 26.2253 15.5184 26.2361 15.2205C26.2373 15.1886 26.242 15.1569 26.2431 15.125C26.2455 15.0478 26.2228 15.2783 26.2083 15.3542C25.9821 16.5428 25.6272 17.7329 25.1458 18.8438C25.1337 18.8717 24.9111 19.253 24.934 19.316C24.9605 19.3887 25.0348 19.1968 25.0712 19.1285C25.2309 18.8286 25.3057 18.6249 25.4062 18.2778C25.6275 17.5138 25.753 16.7255 25.8507 15.9375C25.8959 15.5731 25.9596 15.1636 25.941 14.7917C25.9289 14.5506 25.7809 14.6593 25.6146 14.7292C24.6248 15.1448 23.6182 15.3455 22.5486 15.4479C21.2982 15.5677 20.036 15.5119 18.7917 15.6979C18.711 15.71 18.6289 15.7215 18.5521 15.75C18.4123 15.8018 18.8458 15.6972 18.9896 15.658C20.7262 15.1838 22.4388 14.6696 24.2118 14.3438C24.2144 14.3433 25.0396 14.2506 25.0868 14.1528C25.1019 14.1214 25.0174 14.1437 24.9826 14.1458C24.7092 14.1623 24.1811 14.2379 23.967 14.2691C22.3869 14.4996 20.8105 14.8454 19.3056 15.3872C19.0856 15.4663 18.821 15.5583 18.6319 15.7083C18.5378 15.783 18.859 15.803 18.9792 15.8056C20.2253 15.8321 21.4756 15.7534 22.7222 15.75C23.0867 15.749 23.4851 15.7174 23.8507 15.7569C24.0867 15.7825 23.5096 16.0979 23.2986 16.2066C22.1364 16.805 20.8649 17.1119 19.5903 17.3628C19.3324 17.4136 19.0495 17.4482 18.7986 17.5347C18.4207 17.665 19.5881 17.4032 19.9757 17.3056C21.6956 16.8723 23.4104 16.3283 25.0174 15.5729C25.1431 15.5138 25.2653 15.4473 25.3906 15.3872C25.5206 15.3247 25.6161 15.2659 25.4774 15.3958C25.0871 15.7615 24.638 16.0825 24.2153 16.4063C23.3453 17.0725 22.4651 17.725 21.592 18.3872C21.1567 18.7173 20.696 19.0422 20.2951 19.4167C20.1434 19.5584 20.6209 19.1576 20.7674 19.0104C21.5024 18.272 22.1753 17.4803 22.9375 16.7674C23.3255 16.4044 23.731 16.0629 24.1354 15.7188C24.1926 15.6701 24.3539 15.5178 24.3142 15.5816C24.152 15.8429 23.9239 16.0977 23.7431 16.3403C23.1092 17.1904 22.4767 18.0453 21.8924 18.9306C21.7057 19.2134 21.5064 19.5102 21.3698 19.8229C21.2922 20.0005 21.3828 19.9733 21.5208 19.8819C22.517 19.2222 22.7987 18.0804 23.2292 17.0365C23.3057 16.8507 23.3914 16.667 23.4792 16.4861C23.5047 16.4334 23.5485 16.3428 23.5295 16.4896C23.4807 16.8668 23.3715 17.2451 23.2743 17.6111C23.1705 18.0023 23.1018 18.234 22.9826 18.6146C22.9218 18.8088 22.8281 18.996 22.8021 19.1979C22.7783 19.3825 23.1146 18.9856 23.2309 18.8403C23.6995 18.2551 24.121 17.6301 24.5208 16.9965C24.764 16.6113 24.9945 16.2176 25.1892 15.8056C25.2073 15.7673 25.2536 15.6523 25.2257 15.684C25.117 15.8074 25.0224 15.9424 24.9201 16.0712C24.1057 17.0968 23.2959 18.1278 22.5191 19.1823C22.404 19.3385 22.0555 19.8021 22.191 19.6632C22.4981 19.3482 22.7708 18.9943 23.0556 18.6597C23.7525 17.841 24.5528 17.1374 25.2882 16.3576C25.3028 16.3421 25.3143 16.3094 25.3351 16.3142C25.4211 16.3341 25.2951 16.4868 25.2639 16.5694C24.9846 17.3078 24.6215 18.0186 24.2431 18.7101C24.0063 19.1428 23.7553 19.5607 23.4687 19.9618C23.4267 20.0207 23.3044 20.1964 23.3594 20.1493C23.5518 19.9844 23.7132 19.7548 23.8681 19.559C24.1565 19.1945 24.4353 18.8229 24.7326 18.4653C24.9185 18.2418 25.112 18.0249 25.2986 17.8021C25.3155 17.7819 25.3284 17.7578 25.349 17.7413C25.4428 17.6662 25.2159 17.9417 25.1545 18.0451C24.2788 19.5204 23.468 21.0445 22.2951 22.316C21.9053 22.7386 22.3404 21.9111 22.0243 21.9514C21.6933 21.9936 21.3599 22.2064 21.0469 22.3108C20.601 22.4594 20.1498 22.5224 19.6823 22.4653C19.5839 22.4533 19.3002 22.4357 19.3924 22.3993C19.5766 22.3265 19.8907 22.3184 20.0712 22.2917C20.4997 22.2281 20.9326 22.1755 21.3542 22.0729C21.4643 22.0461 22.1436 21.8581 21.5486 21.9028C20.3469 21.993 19.1509 22.1669 17.9444 22.1875C17.9312 22.1877 17.3794 22.1939 17.4271 22.1493C17.7003 21.8937 18.221 21.7623 18.566 21.6806C19.1582 21.5401 20.9916 21.6188 20.3872 21.5469C20.1249 21.5157 19.8493 21.5345 19.5868 21.5313C18.8452 21.5219 18.106 21.4863 17.3663 21.4306C16.7975 21.3877 16.1517 21.3775 15.5903 21.2396C15.3042 21.1693 16.0768 20.8944 16.3542 20.7951C17.8138 20.2726 19.3302 20.0592 20.8611 19.8715C20.9532 19.8602 21.0454 19.8502 21.1372 19.8368C21.2812 19.8158 21.2109 19.8156 21.1163 19.8177C20.5981 19.8291 20.0812 19.8648 19.5625 19.8715C19.476 19.8726 17.6652 19.9121 17.6632 19.8958C17.6436 19.7393 19.9565 19.6922 20.1128 19.6892C20.3867 19.6841 20.8075 19.7328 21.0868 19.6563C21.3187 19.5927 20.612 19.5787 20.3733 19.5503C19.0205 19.3897 17.6747 19.1803 16.3229 19.0139C16.1481 18.9924 16.2373 18.9818 16.3767 18.9635C16.7722 18.9117 17.1713 18.8797 17.5694 18.8576C18.1834 18.8237 18.7984 18.816 19.4132 18.816C19.7689 18.816 20.0114 18.8179 20.3524 18.8281C20.4377 18.8307 20.5807 18.7646 20.6076 18.8455C20.6126 18.8603 20.5779 18.8551 20.5625 18.8576C20.445 18.8774 20.3266 18.8919 20.2083 18.9063C19.6912 18.9689 19.1709 19.0011 18.651 19.0313C17.7388 19.0841 16.8257 19.1171 15.9132 19.1632C15.5198 19.1831 15.1503 19.2033 14.7604 19.2361C14.7174 19.2397 14.5889 19.2496 14.6319 19.2517C14.698 19.255 14.764 19.245 14.8299 19.2396C15.5699 19.1788 16.3077 19.0945 17.0469 19.0243C17.539 18.9776 18.1625 18.8539 18.6667 18.9201C18.9573 18.9583 18.1188 19.1348 17.8333 19.2014C16.5659 19.497 15.2856 19.643 13.9896 19.7396C13.4321 19.7811 12.8668 19.7989 12.3125 19.8785C12.2882 19.882 12.2182 19.8894 12.2413 19.8976C12.3985 19.953 12.5747 19.8933 12.7413 19.8889C13.3054 19.8738 13.8698 19.8575 14.434 19.8507C14.5411 19.8494 14.6482 19.8473 14.7552 19.8507C14.7931 19.8519 14.8911 19.8345 14.8681 19.8646C14.8348 19.9081 14.7636 19.8979 14.7101 19.9097C14.569 19.9408 14.427 19.9679 14.2847 19.9931C12.687 20.2752 11.0752 20.4581 9.4618 20.6215C9.37616 20.6302 9.29045 20.6384 9.20486 20.6476C9.08005 20.661 9.15082 20.6571 9.19444 20.6493C9.55246 20.5857 9.89851 20.5391 10.2639 20.5226C10.7637 20.5 11.267 20.4944 11.7674 20.5C11.9454 20.502 12.105 20.4984 11.8663 20.5885C11.4863 20.732 11.0891 20.8445 10.6875 20.9063" stroke="#4B5298" stroke-linecap="round" stroke-linejoin="round"/>
<path d="M11.0313 22.5313C10.241 22.5774 9.47934 22.4953 8.72917 22.2257C8.02498 21.9726 10.1306 22.7824 10.7517 23.1997C10.8837 23.2883 10.4369 23.2485 10.4254 23.2483C10.0376 23.242 9.6528 23.215 9.26737 23.1719C9.2012 23.1645 8.6641 23.1596 8.61112 23.0764C8.59297 23.0479 9.05833 22.9869 9.06598 22.9861C9.25995 22.9667 9.83031 22.872 9.64931 22.9444C9.09351 23.1668 8.52433 23.3119 7.93403 23.4167C7.74269 23.4506 7.56651 23.5029 7.59028 23.2604C7.62768 22.8789 7.64468 22.5351 7.61806 22.1528C7.59179 21.7754 7.48629 21.411 7.47223 21.0313C7.45643 20.6047 7.51886 20.1835 7.46528 19.7587C7.39542 19.2048 7.29561 18.6021 7.15278 18.0625C6.9464 17.2828 6.70091 16.5008 6.46875 15.7292C6.36664 15.3898 6.2049 15.0809 6.125 14.7413C6.11252 14.6883 6.06649 14.6418 6.04514 14.592C5.96799 14.412 5.93267 14.2132 5.87674 14.026C5.83128 13.8739 5.8034 13.7002 5.69966 13.5747C5.58008 13.4299 5.52377 13.2581 5.44445 13.0903C5.37567 12.9448 5.90341 13.2249 5.95834 13.25C6.52737 13.5098 7.0403 13.5013 7.64931 13.5243C8.7981 13.5677 9.96889 13.5559 11.1181 13.5295C11.7695 13.5145 12.4216 13.4419 13.0729 13.4375C13.7546 13.4329 14.4364 13.445 15.1181 13.4375C15.8003 13.43 16.4562 13.2714 17.1319 13.2257C18.0596 13.163 19.0047 13.2188 19.9358 13.2188C20.684 13.2188 21.4269 13.1563 22.1754 13.1563C23.0127 13.1563 23.8501 13.1424 24.6875 13.1424C24.9152 13.1424 25.1807 13.0822 25.4063 13.1319C25.6885 13.1942 25.9985 13.4021 26.2431 13.5556C26.3333 13.6122 26.4182 13.6808 26.5174 13.7205C26.6983 13.7929 26.8003 14.0873 26.8993 14.2413C27.0253 14.4372 25.9044 14.5569 25.783 14.5833C25.448 14.6562 25.2167 14.8924 24.9826 15.1302C24.3019 15.8216 23.8332 16.609 23.3924 17.4688C23.0496 18.1372 22.6297 18.7819 22.3403 19.4757C22.1664 19.8926 22.0176 20.3184 21.8646 20.7431C21.8208 20.8644 21.7712 20.9721 21.7014 21.0799C21.6799 21.113 21.6002 21.1883 21.6389 21.1806C21.7154 21.1653 21.7269 21.0514 21.7639 20.9826C21.9136 20.7041 22.0518 20.4159 22.1632 20.1198C22.1764 20.0847 22.3575 19.6288 22.309 19.6024C22.2457 19.5679 22.211 19.7087 22.1667 19.7656C21.9699 20.0182 21.9504 20.0457 21.724 20.3247C21.102 21.091 20.4041 21.8202 19.8819 22.6615C19.7841 22.819 19.7059 22.9554 19.5608 23.0642C19.2396 23.3051 18.8269 23.2422 18.4688 23.3681C18.1999 23.4625 17.9325 23.5876 17.6597 23.6667C17.6537 23.6684 17.4558 23.713 17.4549 23.6979C17.4511 23.638 17.7381 23.4726 17.7778 23.441C17.8899 23.3517 17.9615 23.3077 17.783 23.2274C17.5091 23.1043 16.7854 22.9004 16.6372 22.8559C16.1943 22.723 13.5771 21.9472 13.3681 21.8854C11.5573 21.3499 9.73546 20.8513 7.92535 20.3142C7.76182 20.2657 7.5977 20.2183 7.4375 20.1597C7.39443 20.144 7.32391 20.1375 7.31771 20.092C7.31277 20.0558 7.39063 20.0804 7.42709 20.0833C7.5134 20.0903 7.59877 20.1065 7.68403 20.1215C7.82585 20.1466 9.41724 20.5145 9.35764 20.6337C9.21544 20.9181 8.77368 20.9079 8.57987 21.1233C8.53262 21.1758 8.68904 21.2202 8.75695 21.2396C9.09655 21.3366 9.44679 21.3901 9.7882 21.4792C10.0464 21.5465 9.79261 21.5981 9.67709 21.6181C9.01144 21.7332 8.32918 21.7604 7.65973 21.8507C7.33194 21.8949 6.35375 22.0136 6.68403 22.0313C6.95774 22.0459 7.26036 21.9708 7.52778 21.9306C8.04738 21.8524 8.63728 21.8282 9.125 21.625" stroke="#4B5298" stroke-linecap="round" stroke-linejoin="round"/>
<path d="M8.5 23.0313C8.15965 21.9584 7.80982 20.9006 7.79514 19.7639C7.79224 19.5388 7.83704 18.8653 7.84375 19.0903C7.85412 19.4374 7.84103 19.7847 7.85764 20.1319C7.89079 20.825 8.0168 21.492 8.20834 22.158C8.32641 22.5685 8.43777 23.0121 8.64236 23.3906C8.79052 23.6647 8.88817 22.9617 8.88889 22.9583C9.07236 22.0956 8.88671 21.3433 8.60764 20.5191C8.29523 19.5965 7.9118 18.708 7.71528 17.75C7.70583 17.7039 7.59525 16.902 7.64931 17.4583C7.69352 17.9134 7.72782 18.3696 7.7882 18.8229C7.83686 19.1883 7.89804 19.5576 8.01042 19.9097C8.09363 20.1705 8.16274 19.8329 8.17535 19.7257C8.27649 18.866 8.018 17.9654 7.76736 17.1545C7.45297 16.1374 7.03556 15.1557 6.74132 14.1319C6.69639 13.9756 6.67779 13.811 6.61806 13.6597C6.60045 13.6151 6.59723 13.7541 6.59723 13.8021C6.59723 14.5728 6.6428 15.3555 6.75348 16.1181C6.82028 16.5784 6.95614 17.0256 7.01736 17.4861C7.05465 17.7665 6.96946 17.4637 6.9375 17.3889C6.67168 16.7662 6.32369 16.1774 5.95486 15.6111C5.77067 15.3283 5.55176 15.0195 5.34723 14.7465C5.28483 14.6633 5.11854 14.4133 5.13716 14.5156C5.27941 15.298 5.51641 16.0588 5.8125 16.7951C5.84773 16.8827 6.3945 18.2346 6.59028 18.059C7.04967 17.6472 6.99256 16.7731 7 16.2222C7.00508 15.8465 7.03813 16.2375 7.05903 16.3576C7.22239 17.2963 7.48648 18.1922 7.85591 19.0712C8.03725 19.5027 8.22132 20.0199 8.50174 20.4045C8.63706 20.5901 8.75372 20.1633 8.76736 20.1042C8.92686 19.413 8.80838 18.6666 8.67709 17.9826C8.50432 17.0826 8.24216 16.2033 8.09028 15.2986C8.07573 15.212 8.03605 14.9623 8.01216 15.0469C7.92342 15.3609 7.92841 15.7302 7.94792 16.0521C7.9594 16.2416 7.97504 16.5226 8.06945 16.6979C8.28081 17.0904 7.78127 15.8524 7.59375 15.4479C7.3299 14.8788 7.00947 14.3216 6.79861 13.7292C6.67497 13.3818 7.02234 13.6356 7.16667 13.7083C7.82485 14.0401 8.48271 14.3603 9.17014 14.6285C9.43693 14.7326 9.71115 14.8174 9.9757 14.9271C10.1521 15.0002 9.60101 14.8519 9.41667 14.8021C8.83661 14.6454 8.25771 14.4905 7.66493 14.3889C7.54087 14.3676 7.41539 14.3548 7.29167 14.3316C7.21186 14.3166 7.26159 14.3159 7.31424 14.3142C9.60136 14.2439 11.885 14.533 14.1667 14.6354C14.3472 14.6435 14.8886 14.6683 14.7083 14.6563C14.4211 14.6371 14.5155 14.6548 14.1354 14.6146C12.7002 14.4628 11.2766 14.2191 9.84028 14.0729C9.17228 14.0049 8.68595 13.9697 8.0382 13.9444C7.87974 13.9383 7.71893 13.9636 7.5625 13.9375C7.46066 13.9205 7.76863 13.9251 7.87153 13.9167C8.74416 13.8455 9.61409 13.7524 10.4879 13.6927C12.8274 13.5329 15.1667 13.5343 17.5104 13.5469C18.3767 13.5515 20.9737 13.5046 20.1094 13.5642C19.3869 13.6141 18.6494 13.5889 17.9271 13.599C15.8995 13.6271 13.8515 13.6249 11.8333 13.8472C11.7272 13.8589 11.4118 13.8837 11.5174 13.8993C11.8025 13.9414 12.0937 13.9065 12.3819 13.9063C14.4305 13.9043 16.4814 13.9003 18.5278 13.7951C20.0028 13.7194 21.4796 13.6012 22.934 13.3368C23.0099 13.323 23.2334 13.2737 23.1632 13.3056C22.7353 13.5 22.2255 13.616 21.776 13.7222C20.6994 13.9766 19.6086 14.1229 18.5156 14.283C18.506 14.2844 18.2212 14.3205 18.1354 14.3542C18.0702 14.3798 18.2758 14.3592 18.3455 14.3524C19.8078 14.2095 21.2635 14.0535 22.7326 13.9896C23.7884 13.9436 26.9514 13.8658 25.9028 13.9965C24.5402 14.1664 23.1243 14.0841 21.7604 14C20.2645 13.9078 18.7499 13.6413 17.2483 13.6771C17.2149 13.6779 17.118 13.6968 17.151 13.7014C17.2635 13.7171 17.5578 13.7165 17.6181 13.717C19.1349 13.7304 20.648 13.7869 22.1632 13.8611C22.5563 13.8804 23.4659 13.9273 23.9201 13.9549C24.0778 13.9644 24.2429 13.9419 24.3924 13.9931C24.4682 14.019 24.2327 14.0075 24.1528 14.0139C23.7103 14.0493 23.3721 14.0816 22.9097 14.1319C21.0616 14.3331 19.2008 14.5352 17.375 14.8924C16.9573 14.9741 16.4416 15.093 16.0278 15.25C15.9588 15.2762 15.8945 15.3139 15.8316 15.3524C15.7442 15.406 15.7432 15.4212 15.842 15.4288C16.0265 15.443 16.4143 15.4073 16.5295 15.3976C17.2217 15.339 17.7785 15.2757 18.4792 15.1944C18.8249 15.1544 19.8617 15.044 19.5139 15.0556C18.843 15.0778 18.1752 15.1564 17.5052 15.1979C15.9355 15.2953 14.3666 15.3293 12.7951 15.375C12.6081 15.3804 12.048 15.3841 12.2344 15.401C12.6687 15.4405 13.127 15.394 13.5625 15.4167C15.1538 15.4995 16.7379 15.73 18.316 15.941C18.5946 15.9782 19.4302 16.0779 19.1493 16.0694C18.6827 16.0555 18.2187 15.9935 17.7535 15.9549C15.6246 15.778 13.4934 15.6168 11.3576 15.5521C10.7016 15.5322 9.88773 15.5226 9.20834 15.5486C9.11771 15.5521 9.02593 15.5545 8.9375 15.5747C8.80336 15.6053 9.21144 15.6032 9.34896 15.6076C9.89579 15.6254 10.4426 15.6216 10.9896 15.6267C11.0322 15.6271 11.4202 15.6267 11.5226 15.6458C11.5879 15.658 11.3977 15.6958 11.3316 15.7031C10.3976 15.8069 9.44228 15.7327 8.50868 15.6684C8.16707 15.6449 7.63002 15.603 7.25521 15.559C7.21496 15.5543 7.11294 15.5719 7.13542 15.5382C7.1608 15.5001 7.22683 15.5338 7.27257 15.533C7.36458 15.5314 7.4566 15.5308 7.54861 15.5313C8.26727 15.5348 8.97709 15.5817 9.69098 15.6667C9.97507 15.7005 11.0272 15.838 11.309 15.8854C11.5223 15.9213 12.1164 15.9956 11.9236 16.0938C11.7789 16.1674 11.6069 16.1674 11.4462 16.191C11.1482 16.2346 10.8483 16.2647 10.5486 16.2951C9.9193 16.359 8.83201 16.4465 8.20139 16.4965C7.73371 16.5336 7.26046 16.5286 6.79861 16.6111C6.74652 16.6204 6.90368 16.6265 6.9566 16.6267C7.46676 16.6286 8.96746 16.5806 9.24827 16.5729C11.4586 16.5126 13.6705 16.4444 15.8819 16.4444C15.9608 16.4444 16.6014 16.4453 16.0573 16.4688C15.5713 16.4897 14.862 16.4949 14.4201 16.5C12.6785 16.5202 10.9366 16.5306 9.19618 16.6059C8.54524 16.6341 8.84275 16.6218 8.4948 16.6476C8.20178 16.6693 9.08132 16.6095 9.375 16.6007C10.6694 16.5618 11.9842 16.5131 13.2778 16.5903C13.573 16.6079 13.6456 16.6396 13.3368 16.7014C12.8143 16.8059 12.2838 16.8652 11.7569 16.9444C10.4374 17.1428 9.11638 17.3349 7.79861 17.5451C7.7657 17.5504 7.45594 17.5918 7.70139 17.5868C8.42901 17.5719 9.15113 17.5097 9.88021 17.5069C12.185 17.4983 14.4939 17.62 16.7917 17.7934C18.245 17.9031 16.0912 17.9299 16.059 17.9306C14.4597 17.9638 12.8595 17.944 11.2604 17.9826C11.1301 17.9858 10.9998 17.9912 10.8698 18C10.8295 18.0027 10.7754 17.986 10.75 18.0174C10.7295 18.0427 10.8147 18.0262 10.8472 18.0278C10.983 18.0342 11.3282 18.0302 11.4167 18.0295C12.4594 18.0219 13.5023 17.9997 14.5451 18.0052C14.744 18.0063 15.3284 17.9761 15.1406 18.0417C14.8087 18.1576 14.4428 18.1317 14.092 18.1563C12.5467 18.2646 10.9977 18.2853 9.44966 18.3247C9.32174 18.3279 9.19377 18.3303 9.06598 18.3368C9.04052 18.3381 9.11688 18.3403 9.14236 18.3403C9.83002 18.3403 10.5171 18.3267 11.2049 18.3403C12.2497 18.3608 13.3119 18.3945 14.3472 18.5521C14.4994 18.5752 14.5885 18.5968 14.3854 18.6285C14.189 18.6591 13.4987 18.7192 13.3646 18.7292C12.1621 18.8188 10.9548 18.8625 9.75 18.9097C9.34332 18.9257 9.17064 18.931 8.80556 18.9375C8.63371 18.9405 9.14931 18.9375 9.32118 18.9375C10.6352 18.9375 11.9499 18.9248 13.2639 18.941C13.3831 18.9424 13.5041 18.9305 13.6215 18.9514C13.6545 18.9573 13.5608 18.9818 13.5278 18.9878C13.1241 19.0625 12.2397 19.1519 11.9583 19.1806C10.2778 19.3517 8.5882 19.4393 6.90973 19.6285C6.82148 19.6384 6.23439 19.695 6.71528 19.7066C7.6919 19.7302 8.67277 19.6808 9.64931 19.6701C10.37 19.6623 11.1164 19.6263 11.8333 19.7361C12.1831 19.7897 11.655 19.8985 11.6076 19.9132C11.0529 20.0855 10.4917 20.2268 9.92361 20.3472C9.85029 20.3628 9.64669 20.352 9.70486 20.3993C9.72602 20.4165 9.75921 20.4039 9.78646 20.4045C9.91247 20.4074 10.4271 20.4063 10.4514 20.4063C11.3092 20.4063 12.1769 20.3751 13.033 20.441C13.5339 20.4795 12.8837 20.6159 12.8056 20.6354C12.1786 20.7922 11.5405 20.8989 10.9063 21.0208C10.8985 21.0223 10.2277 21.1391 10.3368 21.1771C10.5697 21.2582 10.8118 21.3174 11.0486 21.3854C11.2904 21.4548 11.382 21.4566 11.1007 21.625C11.0359 21.6638 10.1384 22.1394 10.2014 22.2153C10.2742 22.303 10.4277 22.248 10.5417 22.25C10.8466 22.2553 11.1516 22.2465 11.4566 22.2535C11.6628 22.2582 12.2732 22.2845 12.0712 22.3264C11.6052 22.4231 11.0483 22.3292 10.5851 22.276C10.3513 22.2492 10.1038 22.2152 9.87153 22.1649C9.83153 22.1563 9.72775 22.1251 9.76389 22.1059C9.83522 22.068 10.0658 22.0347 10.099 22.0295C10.5726 21.9549 11.0486 21.9359 11.5278 21.934C11.89 21.9326 12.438 21.9461 12.809 21.9618C12.932 21.967 13.2962 21.9617 13.1771 21.9931C12.979 22.0452 12.7191 22 12.5139 22C12.3126 22 12.9054 21.9059 13.099 21.8507C13.5867 21.7117 14.073 21.5701 14.5625 21.4375" stroke="#4B5298" stroke-linecap="round" stroke-linejoin="round"/>
<path d="M19.0586 18.3613C19.0586 19.6309 18.8418 20.5742 18.4082 21.1914C17.9746 21.8086 17.2969 22.1172 16.375 22.1172C15.4648 22.1172 14.791 21.8164 14.3535 21.2148C13.916 20.6094 13.6895 19.707 13.6738 18.5078V17.0605C13.6738 15.8066 13.8906 14.875 14.3242 14.2656C14.7578 13.6562 15.4375 13.3516 16.3633 13.3516C17.2812 13.3516 17.957 13.6465 18.3906 14.2363C18.8242 14.8223 19.0469 15.7285 19.0586 16.9551V18.3613ZM17.9746 16.8789C17.9746 15.9609 17.8457 15.293 17.5879 14.875C17.3301 14.4531 16.9219 14.2422 16.3633 14.2422C15.8086 14.2422 15.4043 14.4512 15.1504 14.8691C14.8965 15.2871 14.7656 15.9297 14.7578 16.7969V18.5312C14.7578 19.4531 14.8906 20.1348 15.1562 20.5762C15.4258 21.0137 15.832 21.2324 16.375 21.2324C16.9102 21.2324 17.3066 21.0254 17.5645 20.6113C17.8262 20.1973 17.9629 19.5449 17.9746 18.6543V16.8789Z" fill="white"/>
</svg>
