<svg width="37" height="32" viewBox="0 0 37 32" fill="none" xmlns="http://www.w3.org/2000/svg">
<g clip-path="url(#clip0)">
<path d="M36.417 10.03C35.323 2.099 29.163 0.0279986 25.944 0.0279986H25.932C22.652 -0.251001 20.212 1.75 18.738 3.191C17.274 1.766 14.872 -0.255001 11.544 0.0259986H11.532C8.31299 0.0259986 2.15399 2.097 1.05899 10.028C0.989994 10.522 0.502994 14.925 3.99199 20.363C7.58299 25.961 15.611 30.681 17.973 31.677L18.738 32L19.503 31.677C21.866 30.68 29.894 25.96 33.483 20.365C36.972 14.927 36.485 10.525 36.416 10.03H36.417ZM29.572 18.271C27.085 22.144 21.369 25.903 18.685 27.263C16.002 25.904 10.286 22.145 7.79799 18.269C5.16499 14.168 5.56299 10.966 5.56299 10.966C6.40599 4.863 12.092 4.674 12.092 4.674C15.141 4.414 17.032 6.783 17.278 7.113L17.847 7.857L18.729 9.042L19.545 7.905L20.148 7.141C20.306 6.944 22.073 4.488 25.291 4.65C25.291 4.65 31.172 4.65 31.811 10.987C31.824 11.115 32.207 14.17 29.573 18.271H29.572Z" fill="#012756"/>
</g>
<defs>
<clipPath id="clip0">
<rect width="37" height="32" fill="white"/>
</clipPath>
</defs>
</svg>
